<?xml version="1.0" encoding="utf-8"?>
<!-- Generator: Adobe Illustrator 16.0.0, SVG Export Plug-In . SVG Version: 6.00 Build 0)  -->
<!DOCTYPE svg PUBLIC "-//W3C//DTD SVG 1.1//EN" "http://www.w3.org/Graphics/SVG/1.1/DTD/svg11.dtd">
<svg version="1.1" id="Layer_1" xmlns="http://www.w3.org/2000/svg" xmlns:xlink="http://www.w3.org/1999/xlink" x="0px" y="0px"
	 width="1280px" height="320px" viewBox="0 0 1280 320" enable-background="new 0 0 1280 320" xml:space="preserve">
<g display="none">
	<path display="inline" fill="#5F48F6" d="M156.036,51.196c0,42.281-0.829,42.281-0.829,84.563c0,3.928-0.784,5.924-4.7,6.223
		c-38.226,2.679-37.926,3.639-76.152,6.319c-4.362,0.333-7.708-6.124-7.708-10.499c0-44.95,0.685-41.659,0.685-86.607
		c0-4.149-4.636-7.015-8.785-7.015c-15.517,0-15.517-2.737-31.033-2.737c-4.149,0-4.361,5.603-4.361,9.752
		c0,36.861-1.218,36.861-1.218,73.722c0,36.864,0.65,36.864,0.65,73.733c0,36.865-5.836,36.865-5.836,73.731
		c0,4.147,6.615,6.51,10.765,6.51c15.516,0,15.516-0.08,31.033-0.08c4.149,0,8.857-2.282,8.857-6.43
		c0-35.013,1.002-35.013,1.002-70.025c0-3.927,0.585-8.526,4.501-8.827c38.225-2.682,38.26-2.176,76.485-4.858
		c4.362-0.333,10.275,3.976,10.275,8.351c0,37.679-0.906,37.679-0.906,75.36c0,4.147,2.14,7.089,6.289,7.089
		c15.516,0,15.516-2.698,31.033-2.698c4.149,0,5.839-0.243,5.839-4.391c0-36.863,0.434-36.863,0.434-73.722
		c0-36.866-1.396-36.866-1.396-73.733c0-36.866,1.433-36.866,1.433-73.731c0-4.149-2.16-6.539-6.31-6.539
		c-15.518,0-15.518-0.429-31.033-0.429C160.9,44.229,156.036,47.047,156.036,51.196z"/>
	<path display="inline" fill="#5F48F6" d="M747.404,117.208c-2.119-22.356-7.182-50.058-27.648-65.979
		c-15.936-12.391-39.355-14.154-56.951-4.286c-16.825,9.427-28.815,29.034-32.896,53.799c-2.291,13.861-2.219,28.061-2.158,41.79
		c0.037,7.002,0.067,14.245-0.215,21.318c-0.371,9.304,0.112,18.62-0.261,27.921c-0.444,11.15,2.06,28.794-14.862,26.384
		c-1.188-0.173-2.4-0.474-3.338-1.226c-3.938-3.152-2.999-14.827-2.988-19.229c0.024-8.772,1.05-17.483,1.565-26.228
		c0.878-14.909,1.824-29.831,1.226-44.772c-1.065-26.696-7.868-48.171-20.217-63.821c-15.466-19.591-35.517-28.741-56.288-22.252
		c-3.789,1.184-7.47,2.882-10.934,5.05c-15.62,9.744-25.109,27.261-28.999,53.548c-2.317,15.608-2.389,31.535-2.461,46.945
		c-0.031,6.859-0.061,13.717-0.287,20.556c-1.082,33.441-6.946,67.113-12.621,99.675l-0.544,3.133
		c-0.354,2.035-1.431,8.231,3.057,11.003c1.762,1.095,3.746,1.155,5.197,1.203l28.409,0.813c0.395,0.01,0.791,0.019,1.19,0.019
		c0.363,0,0.731-0.009,1.096-0.028c1.871-0.108,3.322-0.541,4.567-1.354c2.63-1.729,3.542-4.653,4.188-7.266
		c3.154-12.731,5.516-26.403,7.234-41.791c2.311-20.815,3.106-42.031,3.881-62.552l0.347-9.15
		c0.523-13.277,1.046-24.437,1.891-35.75c0,0,0.365-5.244,0.365-5.249c0.422-6.097,0.235-12.264,1.699-18.246
		c2.504-10.232,13.874-15.856,17.409-2.909c8.377,30.698,4.754,60.694,3.592,91.876c-0.528,14.161-0.144,35.048,9.253,52.794
		c7.9,14.911,30.002,29.377,50.056,27.975c15.671-1.088,30.829-12.046,40.561-29.315c12.123-21.526,14.12-46.947,14.479-68.976
		c0.076-4.823,0.09-9.662,0.093-14.501c0.025-18.116,0.054-36.853,4.062-54.61c0.47-2.085,3.117-12.379,9.38-12.379
		c0.067,0,0.138,0,0.205,0.005c5.796,0.211,8.282,9.273,8.907,12.042c3.507,15.573,3.994,31.875,4.221,48.602
		c0.496,37.421-0.01,77.51-7.019,117.124c-0.451,2.548-1.396,7.841,2.215,11.032c2.558,2.263,6.094,2.131,8.206,2.07l28.029-0.96
		c2-0.07,6.157-0.211,8.225-3.501c0.929-1.479,1.069-3.092,1.178-4.264C747.449,222.213,752.352,169.393,747.404,117.208z"/>
	<g display="inline">
		<path fill="#5F48F6" d="M884.776,280.633c-6.948,0-14.3-0.352-21.392-1.754c-16.166-3.19-29.451-11.377-41.299-19.625
			c-20.291-14.123-35.748-31.363-41.573-53.831c-5.024-19.41-4.801-41.746-1.54-67.306c2.327-18.293,5.682-33.073,11.305-45.838
			c7.716-17.516,19.67-32.021,33.793-41.38c31.569-20.913,86.463-17.648,111.756,17.348c7.537,10.419,12.559,23.405,13.835,38.376
			c1.757,20.527-3.946,39.613-14.872,53.41c-8.861,11.188-21.82,20.494-38.854,25.963c-19.663,6.318-39.278,7.887-58.029,9.153
			c-0.301,0.02-0.596,0.138-0.896,0.16c-5.326,0.358-8.677,4.986-6.055,9.634c3.76,6.676,9.363,12.542,16.667,17.628
			c6.593,4.589,15.241,6.964,25.124,8.916c22.454,4.436,44.648-2.8,57.652-20.354c2.201-2.974,5.847-4.605,9.047-2.752
			c13.781,7.984,13.234,8.929,27.016,16.91c3.584,2.074,6.084,6.811,3.754,10.238C950.941,263.901,918.691,280.633,884.776,280.633z
			 M871.488,85.361c-7.95,0-15.026,2.109-20.701,5.868c-8.535,5.653-15.621,12.974-18.514,19.551
			c-4.83,10.969-5.294,25.392-5.204,37.214c5.771-0.881,11.572-1.208,17.388-1.635c5.639-0.415,11.275-0.901,16.879-1.656
			c6.746-0.909,13.461-2.216,19.951-4.3c8.197-2.636,13.929-5.365,17.023-9.265c3.556-4.492,4.608-11.784,3.866-20.453
			c-0.548-6.449-1.53-11.668-4.064-15.173C892.582,87.862,882.075,85.361,871.488,85.361z"/>
	</g>
	<g display="inline">
		<path fill="#5F48F6" d="M1046.229,284.653c-5.527,0-11.199-0.774-16.918-1.665c-4.471-0.69-14.341-1.639-22.016-9.21
			c-10.276-10.127-10.504-23.939-10.383-29.572c0.686-32.59-1.65-63.922-4.263-97.197c-2.394-30.482-5.063-62.008-4.833-94.167
			c0.029-4.247,4.747-7.891,8.99-7.801c15.014,0.315,15.007,0.56,30.021,0.874c4.189,0.088,7.121,3.551,7.092,7.742
			c-0.198,29.916,1.357,59.128,3.767,89.82c2.234,28.452,5.426,57.659,5.537,87.586c0.016,4.312,3.69,11.884,7.995,11.679
			c5.396-0.256,17.634-0.061,23.439-0.691c5.45-0.589,24.153-2.1,29.898-2.464c4.347-0.275,8.229,4.468,8.296,8.82
			c0.233,15.029-0.839,9.793-0.605,24.822c0.064,4.077-2.029,8.49-6.094,8.785c-4.291,0.311-15.291,0.573-19.887,1.072
			C1077.935,283.987,1055.637,284.653,1046.229,284.653z"/>
	</g>
	<path display="inline" fill="#5F48F6" d="M1253.344,46.958c-15.436,0.209-15.465-1.928-30.903-1.72
		c-4.174,0.058-7.093,4.116-7.054,8.291c0.163,18.579,1.731,37.632-2.548,55.897c-4.128,17.614-15.436,37.813-35.281,39.701
		c-11.24,1.071-23.84-3.029-29.828-10.75c-3.488-4.497-5.565-11.999-7.94-21.078c-4.794-18.335-5.197-40.455-3.318-62.914
		c0.371-4.41-2.887-8.126-7.313-8.123c-15.064,0.011-15.064-1.667-30.129-1.656c-4.064,0.003-6.58,4.903-6.753,8.961
		c-1.206,28.175-2.23,46.612,4.289,73.995c3.744,15.737,8.189,28.418,15.812,38.247c11.052,14.248,28.552,22.979,45.937,26.599
		c13.599,2.832,25.184,1.789,38.3-2.1c2.797-0.829,6.09-1.581,8.413,0.183c2.09,1.587,2.468,4.611,2.055,7.204
		c-1.542,9.624,0.33,21.903-7.684,28.711c-5.79,4.916-14.479,5.636-21.683,6.638c-5.482,0.765-11.023,2.343-16.557,2.317
		c-0.765-0.007-5.271-0.608-9.463-0.884c-4.283-0.278-7.982,2.343-8.123,6.632c-0.445,13.675,1.369,18.984,0.922,32.663
		c-0.125,3.866,0.828,7.803,4.659,8.347c6.279,0.893,14.841,2.145,24.167,2.145c20.415,0,46.227-4.039,60.772-20.931
		c10.427-12.107,15.298-20.233,17.906-38.297c7.512-52.062,11.24-108.564,10.689-172.077
		C1262.653,48.757,1257.546,46.901,1253.344,46.958z"/>
	<path display="inline" fill="#5F48F6" d="M458.194,137.373c-3.096-11.275-7.484-22.187-12.786-32.6
		c-8.286-16.276-18.98-32.172-34.774-41.34c-11.557-6.707-21.744-12.269-35.006-14.712c-23.866-4.394-49.284-6.009-72.542,2.112
		c-2.553,0.882-5.118,1.92-7.7,3.133c-29.721,13.958-51.164,44.385-61.863,74.714c-2.448,6.943-4.365,14.117-5.012,21.451
		c-1.244,14.09,2.226,28.13,5.805,41.815c4.69,17.938,9.942,36.443,21.945,50.569c20.333,23.934,48.658,39.756,80.401,40.479
		c19.593,0.448,39.124-4.372,56.893-12.642c33.091-15.4,56.494-42.361,66.546-77.354
		C465.253,175.07,463.059,155.085,458.194,137.373z M252.182,152.703c-1.298-3.716,0.664-7.78,4.38-9.078
		c3.704-1.306,7.78,0.663,9.078,4.381c1.062,3.045,4.375,6.263,8.646,8.398c4.232,2.121,8.685,2.81,11.611,1.775
		c2.669-0.932,5.13-3.807,6.583-7.694c1.519-4.065,1.735-8.681,0.557-12.045c-1.296-3.716,0.664-7.782,4.379-9.08
		c3.714-1.315,7.779,0.666,9.078,4.38c2.292,6.558,2.05,14.482-0.662,21.737c-2.965,7.924-8.518,13.812-15.237,16.159
		c-1.042,0.364-2.128,0.649-3.245,0.854c-5.979,1.101-12.882-0.058-19.443-3.339C260.221,165.309,254.489,159.312,252.182,152.703z
		 M401.208,212.742c-9.348,11.26-22.726,20.704-35.782,25.265c-3.191,1.113-6.501,1.981-9.874,2.602
		c-10.363,1.914-21.316,1.491-31.22-1.312c-15.194-4.295-26.01-13.679-30.457-26.413c-1.298-3.716,0.666-7.78,4.381-9.077
		c3.693-1.296,7.779,0.663,9.077,4.382c6.234,17.852,33.319,23.369,53.393,16.36c19.63-6.855,44.175-30.122,37.856-48.224
		c-1.298-3.719,0.664-7.784,4.379-9.08c3.705-1.293,7.78,0.666,9.078,4.382C416.49,184.374,412.643,198.978,401.208,212.742z
		 M396.341,134.715c-1.034,0.36-2.104,0.642-3.195,0.841c-13.464,2.482-30.697-6.815-35.222-19.772
		c-1.298-3.717,0.662-7.782,4.378-9.08c3.724-1.308,7.778,0.663,9.08,4.378c2.308,6.609,13.869,12.415,20.26,10.174
		c5.844-2.042,9.647-12.557,7.139-19.742c-1.298-3.716,0.666-7.78,4.381-9.078c3.708-1.311,7.78,0.666,9.076,4.381
		C417.906,113.054,408.346,130.521,396.341,134.715z"/>
</g>
<g>
	<path fill="#FCFC95" d="M156.317,51.259c0,42.26-0.828,42.26-0.828,84.516c0,3.925-0.784,5.921-4.697,6.218
		c-38.204,2.677-37.904,3.637-76.108,6.317c-4.36,0.333-7.704-6.122-7.704-10.494c0-44.924,0.684-41.633,0.684-86.557
		c0-4.145-4.633-7.011-8.78-7.011c-15.508,0-15.508-2.735-31.015-2.735c-4.147,0-4.358,5.601-4.358,9.746
		c0,36.841-1.217,36.841-1.217,73.679c0,36.844,0.649,36.844,0.649,73.688c0,36.844-5.833,36.844-5.833,73.691
		c0,4.146,6.611,6.506,10.758,6.506c15.507,0,15.507-0.08,31.015-0.08c4.146,0,8.852-2.28,8.852-6.426
		c0-34.992,1.001-34.992,1.001-69.984c0-3.928,0.585-8.524,4.499-8.821c38.202-2.681,38.237-2.176,76.441-4.855
		c4.36-0.333,10.269,3.973,10.269,8.345c0,37.656-0.905,37.656-0.905,75.316c0,4.146,2.139,7.085,6.285,7.085
		c15.507,0,15.507-2.696,31.015-2.696c4.147,0,5.835-0.243,5.835-4.389c0-36.841,0.434-36.841,0.434-73.679
		c0-36.848-1.395-36.848-1.395-73.692s1.432-36.844,1.432-73.688c0-4.145-2.159-6.535-6.306-6.535
		c-15.508,0-15.508-0.429-31.015-0.429C161.18,44.296,156.317,47.114,156.317,51.259z"/>
	<path fill="#FCFC95" d="M747.342,117.233c-2.117-22.342-7.178-50.029-27.633-65.941c-15.926-12.382-39.332-14.144-56.918-4.283
		c-16.814,9.423-28.798,29.017-32.876,53.768c-2.291,13.853-2.218,28.045-2.158,41.767c0.037,6.999,0.067,14.237-0.214,21.306
		c-0.371,9.299,0.111,18.606-0.261,27.904c-0.445,11.144,2.058,28.777-14.854,26.366c-1.187-0.167-2.398-0.474-3.336-1.223
		c-3.936-3.15-2.997-14.821-2.986-19.22c0.024-8.764,1.049-17.471,1.564-26.209c0.878-14.902,1.823-29.814,1.225-44.748
		c-1.065-26.679-7.864-48.142-20.205-63.782c-15.458-19.582-35.496-28.727-56.255-22.24c-3.787,1.184-7.465,2.879-10.928,5.047
		c-15.611,9.736-25.094,27.245-28.982,53.515c-2.316,15.6-2.388,31.519-2.459,46.92c-0.03,6.854-0.061,13.709-0.286,20.544
		c-1.082,33.422-6.943,67.073-12.614,99.616l-0.544,3.128c-0.353,2.034-1.43,8.229,3.055,11c1.761,1.091,3.744,1.154,5.195,1.199
		l28.392,0.815c0.395,0.01,0.79,0.02,1.19,0.02c0.363,0,0.731-0.01,1.096-0.032c1.87-0.105,3.32-0.537,4.564-1.35
		c2.629-1.728,3.541-4.654,4.186-7.261c3.152-12.728,5.513-26.389,7.23-41.771c2.31-20.8,3.104-42.003,3.878-62.513l0.347-9.145
		c0.523-13.271,1.046-24.424,1.891-35.731c0,0,0.365-5.239,0.365-5.246c0.422-6.09,0.235-12.257,1.698-18.235
		c2.503-10.223,13.866-15.846,17.398-2.908c8.372,30.681,4.751,60.661,3.59,91.824c-0.528,14.153-0.144,35.027,9.247,52.764
		c7.896,14.902,29.985,29.359,50.027,27.955c15.662-1.084,30.81-12.039,40.537-29.299c12.116-21.51,14.112-46.919,14.471-68.932
		c0.077-4.82,0.089-9.657,0.093-14.493c0.025-18.107,0.055-36.831,4.059-54.58c0.471-2.082,3.115-12.372,9.375-12.372
		c0.067,0,0.138,0,0.205,0.006c5.793,0.211,8.277,9.266,8.901,12.033c3.506,15.564,3.992,31.857,4.219,48.573
		c0.496,37.401-0.009,77.462-7.015,117.058c-0.451,2.546-1.395,7.836,2.214,11.021c2.556,2.265,6.09,2.134,8.201,2.073l28.013-0.96
		c1.999-0.07,6.154-0.211,8.221-3.499c0.928-1.48,1.068-3.09,1.177-4.264C747.387,222.178,752.287,169.389,747.342,117.233z"/>
	<g>
		<path fill="#FCFC95" d="M884.634,280.564c-6.944,0-14.291-0.352-21.38-1.753c-16.155-3.188-29.433-11.371-41.273-19.613
			c-20.279-14.115-35.729-31.347-41.55-53.804c-5.021-19.396-4.798-41.719-1.538-67.265c2.325-18.283,5.678-33.054,11.297-45.81
			c7.712-17.506,19.658-32.005,33.773-41.357c31.551-20.899,86.413-17.637,111.691,17.339c7.532,10.415,12.551,23.391,13.827,38.354
			c1.756,20.516-3.944,39.589-14.864,53.378c-8.856,11.182-21.808,20.483-38.83,25.949c-19.652,6.314-39.256,7.882-57.996,9.148
			c-0.301,0.02-0.596,0.138-0.896,0.156c-5.322,0.358-8.671,4.983-6.051,9.631c3.758,6.673,9.358,12.535,16.658,17.615
			c6.589,4.59,15.231,6.963,25.108,8.914c22.44,4.434,44.623-2.802,57.618-20.346c2.201-2.969,5.845-4.6,9.043-2.748
			c13.773,7.98,13.227,8.921,26.999,16.898c3.583,2.075,6.081,6.81,3.752,10.235C950.761,263.839,918.529,280.562,884.634,280.564z
			 M871.354,85.404c-7.945,0-15.018,2.107-20.688,5.866c-8.53,5.649-15.612,12.967-18.504,19.54
			c-4.827,10.961-5.29,25.377-5.201,37.193c5.768-0.883,11.566-1.209,17.378-1.634c5.636-0.416,11.269-0.902,16.869-1.657
			c6.743-0.909,13.453-2.213,19.94-4.296c8.191-2.635,13.92-5.364,17.013-9.26c3.554-4.491,4.606-11.777,3.864-20.442
			c-0.547-6.445-1.529-11.662-4.062-15.165C892.435,87.905,881.934,85.404,871.354,85.404z"/>
	</g>
	<g>
		<path fill="#FCFC95" d="M1045.991,284.578c-5.523,0-11.191-0.771-16.907-1.659c-4.469-0.694-14.333-1.638-22.003-9.206
			c-10.271-10.123-10.498-23.925-10.376-29.555c0.685-32.57-1.65-63.885-4.261-97.14c-2.393-30.466-5.06-61.972-4.83-94.115
			c0.029-4.244,4.743-7.884,8.985-7.795c15.004,0.313,14.998,0.56,30.002,0.874c4.188,0.089,7.117,3.547,7.088,7.737
			c-0.198,29.897,1.356,59.093,3.766,89.768c2.232,28.435,5.421,57.625,5.533,87.535c0.016,4.306,3.688,11.877,7.99,11.672
			c5.393-0.259,17.623-0.061,23.426-0.69c5.447-0.592,24.14-2.099,29.881-2.463c4.344-0.275,8.224,4.462,8.291,8.814
			c0.233,15.021-0.838,9.788-0.604,24.809c0.063,4.071-2.028,8.485-6.091,8.78c-4.289,0.31-15.282,0.569-19.875,1.071
			C1077.68,283.916,1055.396,284.578,1045.991,284.578z"/>
	</g>
	<path fill="#FCFC95" d="M1252.986,47.024c-15.427,0.208-15.455-1.929-30.885-1.721c-4.172,0.058-7.088,4.113-7.05,8.288
		c0.163,18.567,1.73,37.608-2.546,55.863c-4.127,17.605-15.427,37.791-35.262,39.678c-11.232,1.071-23.826-3.026-29.811-10.744
		c-3.486-4.494-5.562-11.988-7.936-21.065c-4.791-18.325-5.194-40.43-3.316-62.877c0.371-4.408-2.885-8.121-7.309-8.118
		c-15.056,0.013-15.056-1.667-30.111-1.653c-4.062,0.003-6.576,4.9-6.749,8.956c-1.206,28.157-2.229,46.584,4.286,73.951
		c3.742,15.728,8.185,28.403,15.804,38.227c11.045,14.236,28.534,22.966,45.909,26.583c13.591,2.827,25.17,1.788,38.277-2.099
		c2.795-0.831,6.087-1.58,8.408,0.183c2.089,1.587,2.467,4.609,2.054,7.2c-1.542,9.614,0.33,21.891-7.68,28.694
		c-5.786,4.913-14.47,5.633-21.67,6.634c-5.479,0.765-11.016,2.341-16.546,2.312c-0.765-0.003-5.269-0.604-9.459-0.88
		c-4.279-0.278-7.977,2.338-8.117,6.624c-0.445,13.671,1.369,18.978,0.921,32.648c-0.125,3.863,0.828,7.798,4.657,8.342
		c6.275,0.893,14.832,2.143,24.152,2.143c20.403,0,46.2-4.036,60.737-20.918c10.421-12.101,15.289-20.222,17.896-38.274
		c7.508-52.031,11.234-108.502,10.684-171.977C1262.291,48.822,1257.187,46.967,1252.986,47.024z"/>
	<path fill="#FCFC95" d="M458.3,137.387c-3.095-11.269-7.48-22.176-12.778-32.581c-8.281-16.268-18.969-32.155-34.754-41.316
		c-11.55-6.704-21.731-12.263-34.986-14.704c-23.852-4.392-49.255-6.007-72.5,2.111c-2.551,0.879-5.115,1.916-7.696,3.131
		c-29.704,13.949-51.134,44.358-61.827,74.67c-2.447,6.938-4.363,14.109-5.009,21.437c-1.243,14.083,2.225,28.115,5.802,41.792
		c4.688,17.925,9.937,36.419,21.933,50.541c20.32,23.919,48.629,39.729,80.354,40.455c19.582,0.448,39.101-4.369,56.859-12.634
		c33.071-15.396,56.461-42.337,66.507-77.31C465.354,175.062,463.162,155.088,458.3,137.387z M252.407,152.708
		c-1.297-3.713,0.664-7.775,4.377-9.074c3.702-1.305,7.775,0.662,9.073,4.379c1.062,3.045,4.372,6.26,8.641,8.396
		c4.23,2.117,8.679,2.805,11.604,1.772c2.667-0.931,5.127-3.807,6.58-7.689c1.518-4.062,1.733-8.678,0.556-12.04
		c-1.295-3.713,0.664-7.775,4.377-9.074c3.712-1.314,7.774,0.665,9.073,4.379c2.29,6.551,2.049,14.474-0.662,21.725
		c-2.963,7.92-8.513,13.805-15.229,16.149c-1.041,0.365-2.127,0.649-3.243,0.854c-5.975,1.1-12.874-0.058-19.431-3.34
		C260.442,165.305,254.713,159.313,252.407,152.708z M401.347,212.713c-9.343,11.253-22.713,20.691-35.762,25.25
		c-3.188,1.109-6.498,1.979-9.867,2.601c-10.357,1.909-21.304,1.49-31.202-1.312c-15.185-4.296-25.995-13.671-30.439-26.398
		c-1.297-3.713,0.665-7.775,4.378-9.074c3.691-1.292,7.774,0.666,9.071,4.379c6.231,17.845,33.3,23.359,53.362,16.354
		c19.618-6.852,44.15-30.108,37.834-48.199c-1.297-3.714,0.664-7.775,4.377-9.071c3.702-1.292,7.775,0.666,9.073,4.379
		C416.62,184.361,412.775,198.953,401.347,212.713z M396.483,134.729c-1.033,0.361-2.103,0.64-3.194,0.841
		c-13.457,2.482-30.679-6.81-35.202-19.761c-1.297-3.713,0.662-7.776,4.375-9.074c3.722-1.305,7.774,0.662,9.074,4.375
		c2.306,6.605,13.861,12.407,20.249,10.168c5.841-2.041,9.642-12.548,7.135-19.729c-1.297-3.713,0.665-7.775,4.378-9.074
		c3.706-1.308,7.776,0.666,9.071,4.379C418.035,113.081,408.481,130.539,396.483,134.729z"/>
</g>
</svg>
