<?xml version="1.0" encoding="utf-8"?>
<!-- Generator: Adobe Illustrator 16.0.0, SVG Export Plug-In . SVG Version: 6.00 Build 0)  -->
<!DOCTYPE svg PUBLIC "-//W3C//DTD SVG 1.1//EN" "http://www.w3.org/Graphics/SVG/1.1/DTD/svg11.dtd">
<svg version="1.1" id="Layer_1" xmlns="http://www.w3.org/2000/svg" xmlns:xlink="http://www.w3.org/1999/xlink" x="0px" y="0px"
	 width="1280px" height="320px" viewBox="0 0 1280 320" enable-background="new 0 0 1280 320" xml:space="preserve">
<g>
	<path class="svg-path" fill="#5F48F6" d="M156.036,51.196c0,42.281-0.829,42.281-0.829,84.563c0,3.928-0.784,5.924-4.7,6.223
		c-38.226,2.679-37.926,3.639-76.152,6.319c-4.362,0.333-7.708-6.124-7.708-10.499c0-44.95,0.685-41.659,0.685-86.607
		c0-4.149-4.636-7.015-8.785-7.015c-15.517,0-15.517-2.737-31.033-2.737c-4.149,0-4.361,5.603-4.361,9.752
		c0,36.861-1.218,36.861-1.218,73.722c0,36.864,0.65,36.864,0.65,73.733c0,36.865-5.836,36.865-5.836,73.731
		c0,4.147,6.615,6.51,10.765,6.51c15.516,0,15.516-0.08,31.033-0.08c4.149,0,8.857-2.282,8.857-6.43
		c0-35.013,1.002-35.013,1.002-70.025c0-3.927,0.585-8.526,4.501-8.827c38.225-2.682,38.26-2.176,76.485-4.858
		c4.362-0.333,10.275,3.976,10.275,8.351c0,37.679-0.906,37.679-0.906,75.36c0,4.147,2.14,7.089,6.289,7.089
		c15.516,0,15.516-2.698,31.033-2.698c4.149,0,5.839-0.243,5.839-4.391c0-36.863,0.434-36.863,0.434-73.722
		c0-36.866-1.396-36.866-1.396-73.733c0-36.866,1.433-36.866,1.433-73.731c0-4.149-2.16-6.539-6.31-6.539
		c-15.518,0-15.518-0.429-31.033-0.429C160.9,44.229,156.036,47.047,156.036,51.196z"/>
	<path class="svg-path" fill="#5F48F6" d="M747.404,117.208c-2.119-22.356-7.182-50.058-27.648-65.979c-15.936-12.391-39.355-14.154-56.951-4.286
		c-16.825,9.427-28.815,29.034-32.896,53.799c-2.291,13.861-2.219,28.061-2.158,41.79c0.037,7.002,0.067,14.245-0.215,21.318
		c-0.371,9.304,0.112,18.62-0.261,27.921c-0.444,11.15,2.06,28.794-14.862,26.384c-1.188-0.173-2.4-0.474-3.338-1.226
		c-3.938-3.152-2.999-14.827-2.988-19.229c0.024-8.772,1.05-17.483,1.565-26.228c0.878-14.909,1.824-29.831,1.226-44.772
		c-1.065-26.696-7.868-48.171-20.217-63.821c-15.466-19.591-35.517-28.741-56.288-22.252c-3.789,1.184-7.47,2.882-10.934,5.05
		c-15.62,9.744-25.109,27.261-28.999,53.548c-2.317,15.608-2.389,31.535-2.461,46.945c-0.031,6.859-0.061,13.717-0.287,20.556
		c-1.082,33.441-6.946,67.113-12.621,99.675l-0.544,3.133c-0.354,2.035-1.431,8.231,3.057,11.003
		c1.762,1.095,3.746,1.155,5.197,1.203l28.409,0.813c0.395,0.01,0.791,0.019,1.19,0.019c0.363,0,0.731-0.009,1.096-0.028
		c1.871-0.108,3.322-0.541,4.567-1.354c2.63-1.729,3.542-4.653,4.188-7.266c3.154-12.731,5.516-26.403,7.234-41.791
		c2.311-20.815,3.106-42.031,3.881-62.552l0.347-9.15c0.523-13.277,1.046-24.437,1.891-35.75c0,0,0.365-5.244,0.365-5.249
		c0.422-6.097,0.235-12.264,1.699-18.246c2.504-10.232,13.874-15.856,17.409-2.909c8.377,30.698,4.754,60.694,3.592,91.876
		c-0.528,14.161-0.144,35.048,9.253,52.794c7.9,14.911,30.002,29.377,50.056,27.975c15.671-1.088,30.829-12.046,40.561-29.315
		c12.123-21.526,14.12-46.947,14.479-68.976c0.076-4.823,0.09-9.662,0.093-14.501c0.025-18.116,0.054-36.853,4.062-54.61
		c0.47-2.085,3.117-12.379,9.38-12.379c0.067,0,0.138,0,0.205,0.005c5.796,0.211,8.282,9.273,8.907,12.042
		c3.507,15.573,3.994,31.875,4.221,48.602c0.496,37.421-0.01,77.51-7.019,117.124c-0.451,2.548-1.396,7.841,2.215,11.032
		c2.558,2.263,6.094,2.131,8.206,2.07l28.029-0.96c2-0.07,6.157-0.211,8.225-3.501c0.929-1.479,1.069-3.092,1.178-4.264
		C747.449,222.213,752.352,169.393,747.404,117.208z"/>
	<g>
		<path class="svg-path" fill="#5F48F6" d="M884.776,280.633c-6.948,0-14.3-0.352-21.392-1.754c-16.166-3.19-29.451-11.377-41.299-19.625
			c-20.291-14.123-35.748-31.363-41.573-53.831c-5.024-19.41-4.801-41.746-1.54-67.306c2.327-18.293,5.682-33.073,11.305-45.838
			c7.716-17.516,19.67-32.021,33.793-41.38c31.569-20.913,86.463-17.648,111.756,17.348c7.537,10.419,12.559,23.405,13.835,38.376
			c1.757,20.527-3.946,39.613-14.872,53.41c-8.861,11.188-21.82,20.494-38.854,25.963c-19.663,6.318-39.278,7.887-58.029,9.153
			c-0.301,0.02-0.596,0.138-0.896,0.16c-5.326,0.358-8.677,4.986-6.055,9.634c3.76,6.676,9.363,12.542,16.667,17.628
			c6.593,4.589,15.241,6.964,25.124,8.916c22.454,4.436,44.648-2.8,57.652-20.354c2.201-2.974,5.847-4.605,9.047-2.752
			c13.781,7.984,13.234,8.929,27.016,16.91c3.584,2.074,6.084,6.811,3.754,10.238C950.941,263.901,918.691,280.633,884.776,280.633z
			 M871.488,85.361c-7.95,0-15.026,2.109-20.701,5.868c-8.535,5.653-15.621,12.974-18.514,19.551
			c-4.83,10.969-5.294,25.392-5.204,37.214c5.771-0.881,11.572-1.208,17.388-1.635c5.639-0.415,11.275-0.901,16.879-1.656
			c6.746-0.909,13.461-2.216,19.951-4.3c8.197-2.636,13.929-5.365,17.023-9.265c3.556-4.492,4.608-11.784,3.866-20.453
			c-0.548-6.449-1.53-11.668-4.064-15.173C892.582,87.862,882.075,85.361,871.488,85.361z"/>
	</g>
	<g>
		<path class="svg-path" fill="#5F48F6" d="M1046.229,284.653c-5.527,0-11.199-0.774-16.918-1.665c-4.471-0.69-14.341-1.639-22.016-9.21
			c-10.276-10.127-10.504-23.939-10.383-29.572c0.686-32.59-1.65-63.922-4.263-97.197c-2.394-30.482-5.063-62.008-4.833-94.167
			c0.029-4.247,4.747-7.891,8.99-7.801c15.014,0.315,15.007,0.56,30.021,0.874c4.189,0.088,7.121,3.551,7.092,7.742
			c-0.198,29.916,1.357,59.128,3.767,89.82c2.234,28.452,5.426,57.659,5.537,87.586c0.016,4.312,3.69,11.884,7.995,11.679
			c5.396-0.256,17.634-0.061,23.439-0.691c5.45-0.589,24.153-2.1,29.898-2.464c4.347-0.275,8.229,4.468,8.296,8.82
			c0.233,15.029-0.839,9.793-0.605,24.822c0.064,4.077-2.029,8.49-6.094,8.785c-4.291,0.311-15.291,0.573-19.887,1.072
			C1077.935,283.987,1055.637,284.653,1046.229,284.653z"/>
	</g>
	<path class="svg-path" fill="#5F48F6" d="M1253.344,46.958c-15.436,0.209-15.465-1.928-30.903-1.72c-4.174,0.058-7.093,4.116-7.054,8.291
		c0.163,18.579,1.731,37.632-2.548,55.897c-4.128,17.614-15.436,37.813-35.281,39.701c-11.24,1.071-23.84-3.029-29.828-10.75
		c-3.488-4.497-5.565-11.999-7.94-21.078c-4.794-18.335-5.197-40.455-3.318-62.914c0.371-4.41-2.887-8.126-7.313-8.123
		c-15.064,0.011-15.064-1.667-30.129-1.656c-4.064,0.003-6.58,4.903-6.753,8.961c-1.206,28.175-2.23,46.612,4.289,73.995
		c3.744,15.737,8.189,28.418,15.812,38.247c11.052,14.248,28.552,22.979,45.937,26.599c13.599,2.832,25.184,1.789,38.3-2.1
		c2.797-0.829,6.09-1.581,8.413,0.183c2.09,1.587,2.468,4.611,2.055,7.204c-1.542,9.624,0.33,21.903-7.684,28.711
		c-5.79,4.916-14.479,5.636-21.683,6.638c-5.482,0.765-11.023,2.343-16.557,2.317c-0.765-0.007-5.271-0.608-9.463-0.884
		c-4.283-0.278-7.982,2.343-8.123,6.632c-0.445,13.675,1.369,18.984,0.922,32.663c-0.125,3.866,0.828,7.803,4.659,8.347
		c6.279,0.893,14.841,2.145,24.167,2.145c20.415,0,46.227-4.039,60.772-20.931c10.427-12.107,15.298-20.233,17.906-38.297
		c7.512-52.062,11.24-108.564,10.689-172.077C1262.653,48.757,1257.546,46.901,1253.344,46.958z"/>
	<path class="svg-path" fill="#5F48F6" d="M458.194,137.373c-3.096-11.275-7.484-22.187-12.786-32.6c-8.286-16.276-18.98-32.172-34.774-41.34
		c-11.557-6.707-21.744-12.269-35.006-14.712c-23.866-4.394-49.284-6.009-72.542,2.112c-2.553,0.882-5.118,1.92-7.7,3.133
		c-29.721,13.958-51.164,44.385-61.863,74.714c-2.448,6.943-4.365,14.117-5.012,21.451c-1.244,14.09,2.226,28.13,5.805,41.815
		c4.69,17.938,9.942,36.443,21.945,50.569c20.333,23.934,48.658,39.756,80.401,40.479c19.593,0.448,39.124-4.372,56.893-12.642
		c33.091-15.4,56.494-42.361,66.546-77.354C465.253,175.07,463.059,155.085,458.194,137.373z M252.182,152.703
		c-1.298-3.716,0.664-7.78,4.38-9.078c3.704-1.306,7.78,0.663,9.078,4.381c1.062,3.045,4.375,6.263,8.646,8.398
		c4.232,2.121,8.685,2.81,11.611,1.775c2.669-0.932,5.13-3.807,6.583-7.694c1.519-4.065,1.735-8.681,0.557-12.045
		c-1.296-3.716,0.664-7.782,4.379-9.08c3.714-1.315,7.779,0.666,9.078,4.38c2.292,6.558,2.05,14.482-0.662,21.737
		c-2.965,7.924-8.518,13.812-15.237,16.159c-1.042,0.364-2.128,0.649-3.245,0.854c-5.979,1.101-12.882-0.058-19.443-3.339
		C260.221,165.309,254.489,159.312,252.182,152.703z M401.208,212.742c-9.348,11.26-22.726,20.704-35.782,25.265
		c-3.191,1.113-6.501,1.981-9.874,2.602c-10.363,1.914-21.316,1.491-31.22-1.312c-15.194-4.295-26.01-13.679-30.457-26.413
		c-1.298-3.716,0.666-7.78,4.381-9.077c3.693-1.296,7.779,0.663,9.077,4.382c6.234,17.852,33.319,23.369,53.393,16.36
		c19.63-6.855,44.175-30.122,37.856-48.224c-1.298-3.719,0.664-7.784,4.379-9.08c3.705-1.293,7.78,0.666,9.078,4.382
		C416.49,184.374,412.643,198.978,401.208,212.742z M396.341,134.715c-1.034,0.36-2.104,0.642-3.195,0.841
		c-13.464,2.482-30.697-6.815-35.222-19.772c-1.298-3.717,0.662-7.782,4.378-9.08c3.724-1.308,7.778,0.663,9.08,4.378
		c2.308,6.609,13.869,12.415,20.26,10.174c5.844-2.042,9.647-12.557,7.139-19.742c-1.298-3.716,0.666-7.78,4.381-9.078
		c3.708-1.311,7.78,0.666,9.076,4.381C417.906,113.054,408.346,130.521,396.341,134.715z"/>
</g>
</svg>
